<svg width="121" height="121" viewBox="0 0 121 121" fill="none" xmlns="http://www.w3.org/2000/svg">
<rect width="121" height="121" rx="8" fill="black"/>
<path d="M107.07 37.7157V19.2248H106.4L94.1008 49.2621L81.8014 19.2248H81.1321V37.7157V67H74.6895V8.5988H83.7258L94.0171 34.369H94.5191L104.81 8.5988H113.512V67H107.07V37.7157Z" fill="white"/>
<path d="M8.2 113V8.3H46.3C62.7 8.3 70.9 18.05 70.9 37.55C70.9 57.05 62.7 66.8 46.3 66.8H16.9V113H8.2ZM16.9 59.15H46C51.4 59.15 55.35 57.7 57.85 54.8C60.45 51.8 61.75 47.65 61.75 42.35V32.75C61.75 27.45 60.45 23.35 57.85 20.45C55.35 17.45 51.4 15.95 46 15.95H16.9V59.15Z" fill="white"/>
<path d="M20.482 113V75.308H34.36C40.588 75.308 43.702 78.89 43.702 86.054C43.702 93.218 40.588 96.8 34.36 96.8H24.802V113H20.482ZM24.802 93.02H34.252C37.456 93.02 39.058 91.292 39.058 87.836V84.272C39.058 80.816 37.456 79.088 34.252 79.088H24.802V93.02ZM47.906 113H43.586V75.308H57.464C63.692 75.308 66.806 78.89 66.806 86.054C66.806 92.102 64.574 95.594 60.11 96.53L67.724 113H62.864L55.79 96.8H47.906V113ZM57.356 93.128C60.56 93.128 62.162 91.4 62.162 87.944V84.272C62.162 80.816 60.56 79.088 57.356 79.088H47.906V93.128H57.356ZM68.3247 113V75.308H89.1687V79.088H72.6447V92.048H88.1427V95.828H72.6447V109.22H89.1687V113H68.3247ZM90.2686 113V75.308H104.147C110.375 75.308 113.489 78.89 113.489 86.054C113.489 93.218 110.375 96.8 104.147 96.8H94.5886V113H90.2686ZM94.5886 93.02H104.039C107.243 93.02 108.845 91.292 108.845 87.836V84.272C108.845 80.816 107.243 79.088 104.039 79.088H94.5886V93.02Z" fill="white"/>
</svg>
